/* XPM */
static char * wall_xpm[] = {
"50 50 710 2",
"  	c #330100",
". 	c #3B0100",
"+ 	c #4F0200",
"@ 	c #450200",
"# 	c #2C0100",
"$ 	c #270100",
"% 	c #170100",
"& 	c #030000",
"* 	c #020000",
"= 	c #010000",
"- 	c #050000",
"; 	c #090000",
"> 	c #110000",
", 	c #200100",
"' 	c #3D0100",
") 	c #230100",
"! 	c #240000",
"~ 	c #260100",
"{ 	c #150000",
"] 	c #000000",
"^ 	c #0A0000",
"/ 	c #1F0100",
"( 	c #410100",
"_ 	c #3E0100",
": 	c #3F0100",
"< 	c #440200",
"[ 	c #4E0200",
"} 	c #470200",
"| 	c #070000",
"1 	c #250000",
"2 	c #430100",
"3 	c #1E0000",
"4 	c #500200",
"5 	c #350100",
"6 	c #480200",
"7 	c #250100",
"8 	c #290100",
"9 	c #4D0200",
"0 	c #400100",
"a 	c #460200",
"b 	c #220000",
"c 	c #340100",
"d 	c #540403",
"e 	c #370100",
"f 	c #1C0000",
"g 	c #310100",
"h 	c #160000",
"i 	c #2E0100",
"j 	c #230000",
"k 	c #3C0100",
"l 	c #490200",
"m 	c #5B020C",
"n 	c #6D021B",
"o 	c #6D041A",
"p 	c #70021D",
"q 	c #6F021C",
"r 	c #61070E",
"s 	c #260101",
"t 	c #430505",
"u 	c #1F0000",
"v 	c #1B0000",
"w 	c #120000",
"x 	c #0C0000",
"y 	c #140000",
"z 	c #4A0200",
"A 	c #0E0000",
"B 	c #1D0000",
"C 	c #690218",
"D 	c #88032B",
"E 	c #7A0721",
"F 	c #77081E",
"G 	c #76081E",
"H 	c #72051C",
"I 	c #580209",
"J 	c #59020A",
"K 	c #5A040A",
"L 	c #520203",
"M 	c #530403",
"N 	c #470403",
"O 	c #510403",
"P 	c #430403",
"Q 	c #3B0201",
"R 	c #390100",
"S 	c #310303",
"T 	c #330303",
"U 	c #440100",
"V 	c #2A0100",
"W 	c #3A0100",
"X 	c #6B0219",
"Y 	c #7F0625",
"Z 	c #810626",
"` 	c #7F0725",
" .	c #7C0722",
"..	c #8C022D",
"+.	c #7B0423",
"@.	c #7A0423",
"#.	c #74071D",
"$.	c #6C0817",
"%.	c #620411",
"&.	c #420100",
"*.	c #4C0403",
"=.	c #510505",
"-.	c #3B0303",
";.	c #470505",
">.	c #5C0909",
",.	c #560808",
"'.	c #450505",
").	c #380100",
"!.	c #510200",
"~.	c #510707",
"{.	c #550808",
"].	c #2D0100",
"^.	c #210000",
"/.	c #130000",
"(.	c #700919",
"_.	c #920331",
":.	c #7B0722",
"<.	c #770721",
"[.	c #8A042C",
"}.	c #8A032D",
"|.	c #6A0219",
"1.	c #1A0000",
"2.	c #420505",
"3.	c #360303",
"4.	c #450606",
"5.	c #320201",
"6.	c #3E0200",
"7.	c #3F0505",
"8.	c #4F0707",
"9.	c #4C0200",
"0.	c #200101",
"a.	c #670415",
"b.	c #820427",
"c.	c #920231",
"d.	c #86042B",
"e.	c #82042C",
"f.	c #7B0624",
"g.	c #74081C",
"h.	c #950233",
"i.	c #8E022F",
"j.	c #2D0202",
"k.	c #210101",
"l.	c #320303",
"m.	c #3F0403",
"n.	c #250101",
"o.	c #460606",
"p.	c #510808",
"q.	c #490606",
"r.	c #4B0505",
"s.	c #320100",
"t.	c #300100",
"u.	c #2F0100",
"v.	c #400404",
"w.	c #4F0505",
"x.	c #5C020D",
"y.	c #72021E",
"z.	c #790224",
"A.	c #87022D",
"B.	c #6C0A16",
"C.	c #900330",
"D.	c #220100",
"E.	c #4D0707",
"F.	c #400505",
"G.	c #410201",
"H.	c #280202",
"I.	c #370404",
"J.	c #1D0101",
"K.	c #220007",
"L.	c #3F0013",
"M.	c #4E0314",
"N.	c #470310",
"O.	c #490608",
"P.	c #250202",
"Q.	c #3D0403",
"R.	c #500201",
"S.	c #500301",
"T.	c #630710",
"U.	c #690A13",
"V.	c #70091A",
"W.	c #480403",
"X.	c #280100",
"Y.	c #400202",
"Z.	c #200000",
"`.	c #3D0505",
" +	c #0B0000",
".+	c #2A0202",
"++	c #4A0606",
"@+	c #4A0312",
"#+	c #69061E",
"$+	c #750328",
"%+	c #6B0323",
"&+	c #32000E",
"*+	c #1C0101",
"=+	c #460505",
"-+	c #340303",
";+	c #3C0403",
">+	c #580605",
",+	c #5C0808",
"'+	c #63090E",
")+	c #75081D",
"!+	c #380303",
"~+	c #4D0505",
"{+	c #460403",
"]+	c #2F0201",
"^+	c #350202",
"/+	c #2F0303",
"(+	c #0F0101",
"_+	c #590909",
":+	c #390404",
"<+	c #54070C",
"[+	c #5D0021",
"}+	c #79002D",
"|+	c #78002D",
"1+	c #270009",
"2+	c #2C0202",
"3+	c #540808",
"4+	c #5C0807",
"5+	c #5D0908",
"6+	c #660215",
"7+	c #8C022E",
"8+	c #960233",
"9+	c #8B042C",
"0+	c #8F022F",
"a+	c #570605",
"b+	c #510301",
"c+	c #550706",
"d+	c #370201",
"e+	c #2B0202",
"f+	c #270202",
"g+	c #100000",
"h+	c #4A0609",
"i+	c #660320",
"j+	c #680025",
"k+	c #180003",
"l+	c #5A0706",
"m+	c #5C0212",
"n+	c #800229",
"o+	c #8E0230",
"p+	c #920232",
"q+	c #820627",
"r+	c #86022A",
"s+	c #660216",
"t+	c #140101",
"u+	c #260202",
"v+	c #2B0100",
"w+	c #150004",
"x+	c #57021B",
"y+	c #3D020E",
"z+	c #150102",
"A+	c #5A0808",
"B+	c #560504",
"C+	c #410407",
"D+	c #540511",
"E+	c #6E0124",
"F+	c #890131",
"G+	c #88042C",
"H+	c #76061F",
"I+	c #650414",
"J+	c #550206",
"K+	c #5D0808",
"L+	c #4E0707",
"M+	c #3C0404",
"N+	c #110101",
"O+	c #110003",
"P+	c #450016",
"Q+	c #2A000A",
"R+	c #280105",
"S+	c #530606",
"T+	c #520403",
"U+	c #490403",
"V+	c #4B0606",
"W+	c #4F0017",
"X+	c #780127",
"Y+	c #73061D",
"Z+	c #5C0708",
"`+	c #4B0200",
" @	c #380404",
".@	c #4A0707",
"+@	c #170101",
"@@	c #1C0100",
"#@	c #0F0002",
"$@	c #2F000D",
"%@	c #3B0012",
"&@	c #6C0027",
"*@	c #2B0205",
"=@	c #3E0404",
"-@	c #410505",
";@	c #4A0403",
">@	c #340101",
",@	c #5E0214",
"'@	c #86022B",
")@	c #70071C",
"!@	c #560407",
"~@	c #590605",
"{@	c #150101",
"]@	c #0D0000",
"^@	c #180100",
"/@	c #3A0012",
"(@	c #410015",
"_@	c #6F0028",
":@	c #59021B",
"<@	c #360208",
"[@	c #560909",
"}@	c #1F0101",
"|@	c #060000",
"1@	c #460110",
"2@	c #7B012B",
"3@	c #6C0421",
"4@	c #540709",
"5@	c #530605",
"6@	c #590706",
"7@	c #470606",
"8@	c #430606",
"9@	c #30000D",
"0@	c #35010E",
"a@	c #470213",
"b@	c #4A040E",
"c@	c #360207",
"d@	c #080000",
"e@	c #380011",
"f@	c #720227",
"g@	c #650719",
"h@	c #56080A",
"i@	c #550403",
"j@	c #040000",
"k@	c #3C0200",
"l@	c #1D0100",
"m@	c #340209",
"n@	c #440114",
"o@	c #280107",
"p@	c #130101",
"q@	c #070001",
"r@	c #170000",
"s@	c #220101",
"t@	c #5D090C",
"u@	c #69071B",
"v@	c #660420",
"w@	c #5A090A",
"x@	c #520301",
"y@	c #310201",
"z@	c #1A0101",
"A@	c #180000",
"B@	c #240100",
"C@	c #1E0101",
"D@	c #320209",
"E@	c #2E0206",
"F@	c #560807",
"G@	c #520707",
"H@	c #55070E",
"I@	c #730129",
"J@	c #66051E",
"K@	c #490508",
"L@	c #480302",
"M@	c #2F0202",
"N@	c #490018",
"O@	c #31010B",
"P@	c #440310",
"Q@	c #2E0303",
"R@	c #4D0606",
"S@	c #540807",
"T@	c #4A0301",
"U@	c #520706",
"V@	c #53060E",
"W@	c #6E0522",
"X@	c #6A0124",
"Y@	c #380106",
"Z@	c #560706",
"`@	c #4F0403",
" #	c #37020C",
".#	c #4B0019",
"+#	c #1F0104",
"@#	c #410403",
"##	c #350201",
"$#	c #490301",
"%#	c #570808",
"&#	c #57070D",
"*#	c #710326",
"=#	c #720126",
"-#	c #4F0206",
";#	c #560605",
">#	c #570909",
",#	c #3E0505",
"'#	c #380302",
")#	c #0C0101",
"!#	c #310109",
"~#	c #5A021D",
"{#	c #460016",
"]#	c #3A0309",
"^#	c #220202",
"/#	c #490505",
"(#	c #430404",
"_#	c #4E050F",
":#	c #6D0521",
"<#	c #700421",
"[#	c #540206",
"}#	c #5E0A0A",
"|#	c #4C0606",
"1#	c #300303",
"2#	c #120101",
"3#	c #210202",
"4#	c #40020E",
"5#	c #460017",
"6#	c #810030",
"7#	c #4D0019",
"8#	c #2E0109",
"9#	c #3A020B",
"0#	c #1D0006",
"a#	c #280204",
"b#	c #57070E",
"c#	c #700521",
"d#	c #760126",
"e#	c #370303",
"f#	c #4B0404",
"g#	c #530706",
"h#	c #0F0000",
"i#	c #1B0101",
"j#	c #100101",
"k#	c #370101",
"l#	c #0E0101",
"m#	c #190103",
"n#	c #280009",
"o#	c #670025",
"p#	c #610022",
"q#	c #33010C",
"r#	c #400111",
"s#	c #3F0014",
"t#	c #580909",
"u#	c #5D060F",
"v#	c #84022B",
"w#	c #7C0226",
"x#	c #580808",
"y#	c #540707",
"z#	c #2B0101",
"A#	c #570707",
"B#	c #560707",
"C#	c #110100",
"D#	c #190000",
"E#	c #040001",
"F#	c #34000F",
"G#	c #3A0011",
"H#	c #3B010F",
"I#	c #530808",
"J#	c #560410",
"K#	c #80012B",
"L#	c #750126",
"M#	c #450106",
"N#	c #540605",
"O#	c #570807",
"P#	c #4E0407",
"Q#	c #4E050D",
"R#	c #47030E",
"S#	c #2F0106",
"T#	c #330207",
"U#	c #200103",
"V#	c #320104",
"W#	c #0D0002",
"X#	c #0B0001",
"Y#	c #190102",
"Z#	c #420112",
"`#	c #7B002E",
" $	c #55001D",
".$	c #49050A",
"+$	c #480606",
"@$	c #76002B",
"#$	c #690026",
"$$	c #2C0006",
"%$	c #500505",
"&$	c #510606",
"*$	c #390303",
"=$	c #5A0415",
"-$	c #65041A",
";$	c #540315",
">$	c #45020F",
",$	c #270106",
"'$	c #440210",
")$	c #3E0308",
"!$	c #2E0104",
"~$	c #0B0101",
"{$	c #1F0202",
"]$	c #3F0310",
"^$	c #59021F",
"/$	c #5B021D",
"($	c #5F0617",
"_$	c #470508",
":$	c #3E0110",
"<$	c #75002B",
"[$	c #680026",
"}$	c #280006",
"|$	c #45030D",
"1$	c #6C051D",
"2$	c #6A061B",
"3$	c #660618",
"4$	c #5C0516",
"5$	c #260104",
"6$	c #39010D",
"7$	c #440108",
"8$	c #190101",
"9$	c #290203",
"0$	c #39090E",
"a$	c #640124",
"b$	c #4D0314",
"c$	c #6D061E",
"d$	c #59031A",
"e$	c #2F000C",
"f$	c #6D0026",
"g$	c #3D0106",
"h$	c #570706",
"i$	c #61041A",
"j$	c #670619",
"k$	c #740522",
"l$	c #6F0A19",
"m$	c #5F0813",
"n$	c #510117",
"o$	c #420111",
"p$	c #48020C",
"q$	c #330A0A",
"r$	c #360405",
"s$	c #300108",
"t$	c #5A0515",
"u$	c #790428",
"v$	c #7B002D",
"w$	c #4D001A",
"x$	c #390011",
"y$	c #730126",
"z$	c #510206",
"A$	c #5E0908",
"B$	c #5B0807",
"C$	c #580706",
"D$	c #500403",
"E$	c #660715",
"F$	c #790325",
"G$	c #8B0330",
"H$	c #700A1A",
"I$	c #750A1E",
"J$	c #5B0518",
"K$	c #8C052F",
"L$	c #4C0116",
"M$	c #120002",
"N$	c #230202",
"O$	c #290202",
"P$	c #380707",
"Q$	c #450605",
"R$	c #310304",
"S$	c #49050E",
"T$	c #54001D",
"U$	c #7D002E",
"V$	c #51001B",
"W$	c #740126",
"X$	c #490302",
"Y$	c #6C0419",
"Z$	c #8B032E",
"`$	c #580515",
" %	c #950633",
".%	c #6E0A18",
"+%	c #A0063A",
"@%	c #B30146",
"#%	c #6D0028",
"$%	c #0A0001",
"%%	c #0D0101",
"&%	c #270201",
"*%	c #1A0100",
"=%	c #310505",
"-%	c #480505",
";%	c #3E0012",
">%	c #660025",
",%	c #3E0013",
"'%	c #420507",
")%	c #630023",
"!%	c #61011E",
"~%	c #4E0406",
"{%	c #3E0403",
"]%	c #370206",
"^%	c #650617",
"/%	c #57021A",
"(%	c #58011D",
"_%	c #770525",
":%	c #53021A",
"<%	c #300208",
"[%	c #190003",
"}%	c #090101",
"|%	c #200403",
"1%	c #380B0A",
"2%	c #52001C",
"3%	c #690124",
"4%	c #4F060B",
"5%	c #4C0609",
"6%	c #360204",
"7%	c #61011A",
"8%	c #7F012E",
"9%	c #550319",
"0%	c #400112",
"a%	c #570514",
"b%	c #70081D",
"c%	c #1E0006",
"d%	c #1E0202",
"e%	c #160101",
"f%	c #290201",
"g%	c #310606",
"h%	c #450706",
"i%	c #35000F",
"j%	c #5B0020",
"k%	c #7A002D",
"l%	c #6C0520",
"m%	c #58080B",
"n%	c #5E0909",
"o%	c #4D0504",
"p%	c #380104",
"q%	c #500117",
"r%	c #56021B",
"s%	c #540317",
"t%	c #470311",
"u%	c #47040E",
"v%	c #1C0005",
"w%	c #0A0002",
"x%	c #180101",
"y%	c #240202",
"z%	c #1E0303",
"A%	c #350404",
"B%	c #3E0504",
"C%	c #3D0A09",
"D%	c #370202",
"E%	c #47050B",
"F%	c #69061D",
"G%	c #660816",
"H%	c #53070C",
"I%	c #4F0404",
"J%	c #320107",
"K%	c #3D020D",
"L%	c #410408",
"M%	c #180004",
"N%	c #210106",
"O%	c #360307",
"P%	c #110002",
"Q%	c #3D0404",
"R%	c #2D0404",
"S%	c #460909",
"T%	c #3F0B0A",
"U%	c #540706",
"V%	c #4B0302",
"W%	c #31010A",
"X%	c #6E0028",
"Y%	c #6A061E",
"Z%	c #36010C",
"`%	c #390302",
" &	c #1E0100",
".&	c #340505",
"+&	c #310403",
"@&	c #440706",
"#&	c #29000A",
"$&	c #700029",
"%&	c #72002A",
"&&	c #49050C",
"*&	c #490404",
"=&	c #470404",
"-&	c #440505",
";&	c #2E0302",
">&	c #3C0309",
",&	c #650024",
"'&	c #3E030A",
")&	c #520505",
"!&	c #400200",
"~&	c #190100",
"{&	c #340304",
"]&	c #50060E",
"^&	c #130003",
"/&	c #540402",
"(&	c #3D0200",
"_&	c #360100",
":&	c #360404",
"<&	c #520808",
"[&	c #590808",
"}&	c #2D0101",
"|&	c #210100",
"1&	c #4F0301",
"2&	c #150100",
"3&	c #3F0200",
"4&	c #2F0101",
"5&	c #470504",
"6&	c #480404",
"7&	c #2A0101",
"8&	c #5B0908",
"9&	c #4E0403",
"0&	c #580807",
"a&	c #370302",
"b&	c #4B0504",
"c&	c #3D0302",
"d&	c #200202",
"e&	c #3A0404",
"f&	c #330201",
"g&	c #530301",
"h&	c #4C0404",
"i&	c #400403",
"j&	c #3E0303",
"k&	c #270101",
"l&	c #2C0303",
"m&	c #5A0707",
"n&	c #5B0707",
"o&	c #4A0505",
"p&	c #460201",
"q&	c #3C0505",
"r&	c #430200",
"s&	c #4C0302",
"t&	c #540606",
"u&	c #310202",
"v&	c #2E0202",
"w&	c #520605",
"x&	c #450403",
"y&	c #3F0303",
"z&	c #500606",
"A&	c #420201",
"  . + + + + + + + @ # $ % & * = = & * - ; - > , ' + + + + + + + + + + + + + + + + + + + + + + + ' ' ",
"@ @ + + + + + + + @ ) $ ! ~ { ] ^ ~ / ;   ( _ _ _ : < [ + + + + + + + + + + + + + + + + + + + + + + ",
"+ + + + + + + + + + + + + } ! | 1 2 : 3 ' + + 4 } ~ 5 [ + + + + + + + + + + + + + + + + + + + + + + ",
"+ + + + + + + + + + + + 4 6 7 8 2 9 0 3 ' + + 4 a b c 9 4 + + + + + + + + + d d + + + + + + + + + + ",
"+ + + + + + + 4 [ a _ ' _ e f $ ' : g h i 2 9 4 a j $ k _ _ 0 l m n o p q r d 9 9 9 [ + + + + + + + ",
"+ + + + + + 9 9 9 5 s t u v ^ | > w x - y g z 4 } b A f h A B 0 C D E F G H m I J K L + + + + + + + ",
"+ + + + 4 M N N O P t Q ( R f ] ] ] S T g U 9 4 a j V W u ] w _ X Y Z `  ...+.@.#.$.%.[ + + + + + + ",
"&.l 9 a *.=.-.;.>.,.'.).!.l 7 ] ] ~.{.].@ 4 4 4 } j # k ^.] /._ X (._.:.<.:.[.[.` }.|.[ + + + + + + ",
"1.).a i 2.s ^ T 3.4.5.6.@ a ! ] 7.8.~.@ 9.9 9 [ @ ^.^ { 0.S v : a.b.c.d.e.f.E g.h.i.|.[ + + + + +   ",
"] ^.].h 7.j.k.] l.m.( 6 c i n.o.o.p.q.r.c s.t.u.V > S 7.7.v.w.l x.q y.z.A.B.B.C.h.i.|.[ + + + + + D.",
"] = = ] S E.j.] F.G.@ @ # -.F.S H.I.S 7.J.K.L.M.N.O.P.H.] Q.*.9.+ R.S.T.U.V.G C.h.i.|.[ + + + + + f ",
"] ] ] J.7.7.J.] 8.W.' X.Y.N Z.`. +p..+J.++@+#+$+%+&+*+=+] -+;+2 + >+,+'+b.h.)+Z h.i.|.[ + + + + + /.",
"] ] ] 7..+7.] !+~+{+5 ]+^+# /+(+_+:+.+7.7.<+[+}+|+1+2+3+] o.w 0 + 4+5+6+7+8+C. .9+0+X [ + + a+b+@ /.",
"] ] J.7.S S ] Q.c+d+I.e+| *+0.8.~.S f+v g+] h+i+j+k+v.~.J.o.{ 0 l+l+l m+n+o+p+q+E r+s+[ + >+>++ ).g+",
"] ] 7.J.S S J.'.'.2.J.] P.t+u+] ] * D.: v+] w+x+y+z+:+~.S S { A+B+9 W C+D+E+F+G+H+I+J++ b+K++ + @ i ",
"] S S ] o.] S L+~.= = = M+I.N+] * = v+z s.] O+P+Q+R+F.L+7.J.{ S+T+U+V+S o.W+X+}.Y+Z+9 b+4+d + `+' 0 ",
" @2.] ] o.L+.@t J.* = 2.2.+@= = = * @@. i #@$@%@&@*@=@++++S -@w.;@!+* S l.>@,@'@)@!@a+~@a++ + + + z ",
"7.2.S J.t ~.3+] = = S ++{@= * = * * ]@^@w /@(@_@:@<@E.[@++S }@^.b |@] o.* w 1@2@3@4@5@6@+ + + + + + ",
"] S S J.8.7@8@] ] 7.S ] = = * * ^ A / @@g+9@0@a@b@c@E.8.S ] d@! 1 ^ S S ] ] e@f@g@h@>.i@+ + + + + + ",
"] S S .+8.t 8@] 7.J.j@^ | |@d@j@j@@@$ k@l@m@n@o@p@q@++7.] ] /._ : r@o.- s@o.t@u@v@w@>.x@+ + + + + + ",
"] S S ++ @t 8@7.J.] f i v y@z@- A@u.v+B@C@D@a@E@* J.7.] ] ] { &.2 3.S q.F@G@H@I@J@K@A+4 + + + + + t.",
"] S 2.2. @7.o.J.] ] 1 L@M@^+A ]@].h * = = N@O@P@Q@H.7.] ] ] g+e ' R@2.S@T@U@V@W@X@Y@Z@b++ + + + + , ",
"] 7.++S 2.S ] ] ] ] -.`@. ^@A@+@{@u+= * ] e@ #.#+#=+++J.] ] & /.@#*.##7 $#%#&#*#=#-#;#b++ + + + + , ",
"] ># @S 2.S ] ] S S ,#@#'#J.*+k.)#-+^ * ] !#~#j+{#]#f+7.^#] ] ] q.g b A@/#(#_#:#<#[#a+b++ + + + `+, ",
"J.}#}@!+|#C@] = 1#8.!+C@2+H.2#* * 3#* ] S 4#5#6#7#8#9#0#a#7.J.S L+& * J.7.-+b#c#d#[#a+b++ + + + `+7 ",
"7@[@e#f#g#h#] 0.0.* i#j#{@k#{ * z@l#* ] 7.m#n#o#p#q#r#.#s#J.t t#7.] ] 2.2.~.u#v#w#[#;#b++ + + + + 8 ",
"x#y#z#A#B#J.] Q@C@C#D#x g+s@+@d@{@& = S S = E#F#G#O@H#&@5#] I#o.L+S ] o.l.8.J#K#L#M#N#b++ + + + + . ",
"4+O#3 U+P#Q#R#S#T#U#V#{@^ - - ]@& - = o.S S ^#W#X#Y#Z#`# $.$+$7.] S 2.S ] S N.@$#$$$%$b++ + + + + + ",
">+&$> *$=$-$;$>$,$'$)$!$; j@]@2#p@~${$ @2..+= = * {@]$^$/$($_$J.] ] ++ @] 7.:$<$[$}$%$x@+ + + + + + ",
">+w.& ] |$1$2$3$4$5$6$7$> j@]@> l#k..+8$t ] ] ] * 9$0$a$b$c$d$e$] ] o.L+] 7.:$<$f$g$h$B+4 4 4 4 x@>+",
">+%$D# +i$j$k$l$m$n$o$p$0.& t+2#& 0.l#Q@-+] =  +> q$r$s$t$u$v$w$] S 2.S ] o.x$<$y$z$A$B$9.`+`+`+C$T+",
"d D$e e E$F$G$H$I$J$K$L$M$d@3#2#N$| {@O$y = & / P$Q$v.R$S$T$U$V$] S 2.S J.7.x$@$W$[#A$N#s.].i m.m.m.",
"+ + @ X$Y$Z$`$ %.%+%@%#%$%; j#%%{@* M@&%}@]@*%=%Q$d -%2#* ;%U$>%,%'%++] J.7.$@)%!%~%c+U@A ] J.7.3 {%",
"+ + + W.]%^%/%(%_%J@:%<%[%j@; * e#* /+N+}%D.|%1%+ d w.d@= 2%U$6#3%4%S ] J.7.#@n#5%q.2.V+& ] S T c `@",
"+ + b+A+6%7%8%9%0%a%b%(%c%q@d%{@P.e%-+l#^#f%g%h%+ [ P |@] i%j%k%l%m%7.o.J.7.] 7.E. @7.t J.] 7.}@1 P ",
"+ + n%o%# p%q%r%s%t%u%Q+v%w%x%i#y%N$O$z%A%B%C%d d b+D%T S S E%F%G%H% @S J.7.J.7.8..+7. @S J.7.] = S ",
"+ a+l+b+. I%J%K%L%M%N%O%P%& & & /+M+Q%R%S%T%U%d V%D%{+t S S W%X%Y%Z%7.] J.7.7.o.2.= 7.:+l.l.S ] ] 7.",
"+ + a+b+>+T+`%7.] = |@ &x & & & l#3.j..&+&@&@ v+c N Q.l.o.S #&$&%&&&J.] S  @t 8.J. +-%*&=&-&] ] ] o.",
"@ @ 6@6@x@9.r.r@d@; *%x |@- & & d@J.0.&%;&v+@ 9.} -.S J.] S >&,&i+'&] ] S ++E. @A $ )&B+;#@#] ] J.7.",
"c !&+ + + 6@l R A@r@~&& & & & & -  +h#/ / ( `+4 a -&.+7.] ] {&]&]&^&] ]  @I#8.J.# @ ;#/&6@@#] ] S S ",
"s.8 + + d M U g h H.z@A j@& & & |@(+|  &X.# s.(&_&e#t :&= ] ] S L+] ] ] <&3+-@].&.+ i@D$[&}&] ] S S ",
"A@|&+ + >+1&=&|#,.:+|@& j@; - & x%& & ; .+2&3&X.x%-+:+.+= ] ] o.] o.J.7@{.|#4&0 l `+d *.{.s@] ] L+] ",
"A l@+ + W 5&h$6&w = .+C@t+{@x%j@* * t+e+1# &/ A y%] ++t P.S 2.2.S 7.I#7&8&A#: s.8 t.9&T+0&a&] 2.<&S ",
"d@y b+X$b&c&i@*.2.o.S e+Q@e%* & | d&}@p@.+] = e&* ] 7.J.Q@ @++S 3.f&##x#,+g&`+e v+s.} l+l+h&i S@++J.",
"; J.4+i&a+j&i@*.k&] S 7.i#] = O$N${@= O$j#] l& +* = /+* ] o.* ^ # } 9.m&4++ [ 9.`+9.[ d n&M 1&;#o&j@",
"- h p&p&+ ).4 &.A@S S ] ] S o.P.] ] i#q&* }@Q@* = = J.* Q@S A s.< [ 4 i@b++ + 4 4 4 + + d d >+6@_&j@",
"d@l@@ @ + r&_ &.2.S ] S o.S * * = = *+H.3.j#= = ] * .+0.;.f h 0 + + + + + + + + + + + + + d b+9 5 j@",
"; , `+' . 9 s&t&u&S 7@T - ] = * = ] Q@2+3#] ] = ] & v&w&z R ^.0 + + + + + + + + + + + + + + + 9 5 j@",
"x ~ + + . 7&x&y&e&v&s.R X.j@= = ] ] S S ] ] ] ] = j@z&[ 4 6 _ 6 + + + + + + + + + + + + + + + 9 5 j@",
"D#V + + d >+O A&1.  [ 9 e | = * * * * * * * * * * j@5 9 + + [ + + + + + + + + + + + + + + + + 9 5 j@"};
